<svg xmlns="http://www.w3.org/2000/svg" width="24" height="23.497" viewBox="0 0 24 23.497">
  <g id="gear" transform="translate(0 -0.226)">
    <path id="Trazado_38" data-name="Trazado 38" d="M20.7,9.281,20.1,7.841a26.13,26.13,0,0,0,1.285-3.3L19.514,2.716A25.787,25.787,0,0,0,16.2,4.042L14.736,3.45A25.919,25.919,0,0,0,13.262.226H10.629A24.437,24.437,0,0,0,9.246,3.457l-1.465.595A27.167,27.167,0,0,0,4.408,2.794L2.545,4.618A24.6,24.6,0,0,0,3.9,7.86L3.293,9.3A27.468,27.468,0,0,0,0,10.737v2.581a25.5,25.5,0,0,0,3.3,1.355l.606,1.435a26.268,26.268,0,0,0-1.286,3.3l1.865,1.826A26.236,26.236,0,0,0,7.8,19.907l1.469.595a25.742,25.742,0,0,0,1.475,3.222h2.634a24.585,24.585,0,0,0,1.383-3.231l1.47-.595a27.377,27.377,0,0,0,3.367,1.26l1.865-1.824A24.333,24.333,0,0,0,20.1,16.092l.6-1.437A27.171,27.171,0,0,0,24,13.21V10.631A25.527,25.527,0,0,0,20.7,9.281Zm-4.854,2.694A3.848,3.848,0,1,1,12,8.211,3.812,3.812,0,0,1,15.848,11.974Z" transform="translate(0 0)" fill="#fff"/>
  </g>
</svg>
