<svg id="icon-mensaje-warning" xmlns="http://www.w3.org/2000/svg" width="46.163" height="42.2" viewBox="0 0 46.163 42.2">
  <g id="Group_77" data-name="Group 77">
    <path id="Path_91" data-name="Path 91" d="M220.6,333.382a2.372,2.372,0,1,0,0,4.745,2.373,2.373,0,0,0,0-4.745Z" transform="translate(-197.516 -303.727)" fill="#6e6e6e"/>
    <path id="Path_92" data-name="Path 92" d="M45.039,58.944a8.1,8.1,0,0,0,.019-8.2L30.2,25.01A8.188,8.188,0,0,0,15.982,25L1.1,50.764A8.219,8.219,0,0,0,8.22,63.082H37.9A8.172,8.172,0,0,0,45.039,58.944Zm-3.226-1.86a4.484,4.484,0,0,1-3.919,2.268H8.21a4.423,4.423,0,0,1-3.872-2.221,4.49,4.49,0,0,1-.009-4.527l14.88-25.755a4.469,4.469,0,0,1,7.762.009l14.87,25.755A4.431,4.431,0,0,1,41.813,57.084Z" transform="translate(0 -20.882)" fill="#6e6e6e"/>
    <path id="Path_93" data-name="Path 93" d="M219.556,157.243a2.58,2.58,0,0,0-1.831,2.591c.057.75.1,1.509.161,2.258.161,2.856.323,5.656.484,8.512a1.738,1.738,0,0,0,1.775,1.67,1.774,1.774,0,0,0,1.775-1.727c0-.588,0-1.129.057-1.727.1-1.831.218-3.663.323-5.494.057-1.186.161-2.372.218-3.559a2.931,2.931,0,0,0-.218-1.186A2.379,2.379,0,0,0,219.556,157.243Z" transform="translate(-197.064 -144.243)" fill="#6e6e6e"/>
  </g>
</svg>
