<svg xmlns="http://www.w3.org/2000/svg" width="18.201" height="18.242" viewBox="0 0 18.201 18.242">
  <g id="call-answer_1_" data-name="call-answer (1)" transform="translate(18.594 0) rotate(90)">
    <g id="Grupo_407" data-name="Grupo 407" transform="translate(0 0.394)">
      <g id="Grupo_406" data-name="Grupo 406" transform="translate(0 0)">
        <path id="Trazado_565" data-name="Trazado 565" d="M17.833,14.789l-2.817-2.817a1.469,1.469,0,0,0-2.071.039L11.525,13.43l-.28-.156a14.124,14.124,0,0,1-3.414-2.469,14.2,14.2,0,0,1-2.474-3.42c-.053-.1-.1-.187-.153-.274l.953-.951.468-.469A1.468,1.468,0,0,0,6.663,3.62L3.846.8A1.467,1.467,0,0,0,1.775.841l-.794.8L1,1.661A4.591,4.591,0,0,0,.348,2.815,4.785,4.785,0,0,0,.057,3.986c-.372,3.084,1.037,5.9,4.862,9.727C10.206,19,14.466,18.6,14.65,18.58a4.76,4.76,0,0,0,1.174-.295,4.576,4.576,0,0,0,1.15-.651l.017.015.8-.788A1.47,1.47,0,0,0,17.833,14.789Z" transform="translate(0 -0.394)" fill="#6ab321"/>
      </g>
    </g>
  </g>
</svg>
