<svg id="Grupo_291" data-name="Grupo 291" xmlns="http://www.w3.org/2000/svg" width="21.167" height="25.4" viewBox="0 0 21.167 25.4">
  <path id="Trazado_155" data-name="Trazado 155" d="M263.153,7.089l-5.159-5.16A4.019,4.019,0,0,0,255.81.854V9.271h8.417A4.018,4.018,0,0,0,263.153,7.089Z" transform="translate(-243.11 -0.805)" fill="#7eb6cd"/>
  <path id="Trazado_156" data-name="Trazado 156" d="M48.717,10.583A1.581,1.581,0,0,1,47.129,9V0h-9a1.531,1.531,0,0,0-1.124.463,1.53,1.53,0,0,0-.463,1.124V23.813A1.581,1.581,0,0,0,38.134,25.4H56.126a1.581,1.581,0,0,0,1.587-1.588V10.583Z" transform="translate(-36.546)" fill="#7eb6cd"/>
</svg>
