<svg xmlns="http://www.w3.org/2000/svg" width="21.999" height="19" viewBox="0 0 21.999 19">
  <g id="ic_record_voice_over_24px" transform="translate(-1 -2)">
    <circle id="Elipse_3" data-name="Elipse 3" cx="4" cy="4" r="4" transform="translate(5 5)" fill="#287fa2"/>
    <path id="Trazado_3" data-name="Trazado 3" d="M9,15c-2.67,0-8,1.34-8,4v2H17V19C17,16.34,11.67,15,9,15Zm7.76-9.64L15.08,7.05a3.317,3.317,0,0,1,0,3.89l1.68,1.69a5.117,5.117,0,0,0,0-7.27ZM20.07,2,18.44,3.63a7.978,7.978,0,0,1,0,10.74L20.07,16A9.829,9.829,0,0,0,20.07,2Z" fill="#287fa2"/>
  </g>
</svg>
