<svg xmlns="http://www.w3.org/2000/svg" width="24" height="24" viewBox="0 0 24 24">
  <path id="iconfinder_133_111079" d="M55.949,40.939a1,1,0,0,0-1.705-.7l-4.295,3.7v-3a1,1,0,0,0-1.705-.7l-4.295,3.7v-3a1,1,0,0,0-1.705-.7l-4.34,3.73-.955-10.92a1.1,1.1,0,0,0-1.1-1.1h-1.8a1.1,1.1,0,0,0-1.1,1.1l-1,20.9a2,2,0,0,0,2,2h20a2,2,0,0,0,2-2V40.939Zm-14.5,6.445v1.13a.937.937,0,0,1-.935.935h-1.13a.937.937,0,0,1-.935-.935v-1.13a.937.937,0,0,1,.935-.935h1.13A.937.937,0,0,1,41.449,47.384Zm6,0v1.13a.937.937,0,0,1-.935.935h-1.13a.937.937,0,0,1-.935-.935v-1.13a.937.937,0,0,1,.935-.935h1.13A.937.937,0,0,1,47.449,47.384Zm6,0v1.13a.937.937,0,0,1-.935.935h-1.13a.937.937,0,0,1-.935-.935v-1.13a.937.937,0,0,1,.935-.935h1.13A.937.937,0,0,1,53.449,47.384Z" transform="translate(-31.949 -31.949)" fill="#fff" fill-rule="evenodd"/>
</svg>
