<svg id="calendar-recomendado" xmlns="http://www.w3.org/2000/svg" width="22.156" height="24.618" viewBox="0 0 22.156 24.618">
  <g id="Grupo_31" data-name="Grupo 31" transform="translate(0)">
    <g id="Grupo_30" data-name="Grupo 30">
      <path id="Trazado_86" data-name="Trazado 86" d="M41.027,2.462H39.8V0H37.335V2.462H27.487V0H25.026V2.462H23.795a2.451,2.451,0,0,0-2.449,2.462l-.012,17.232a2.461,2.461,0,0,0,2.462,2.462H41.027a2.461,2.461,0,0,0,2.462-2.462V4.924A2.461,2.461,0,0,0,41.027,2.462Zm0,19.694H23.795V8.616H41.027Z" transform="translate(-21.333)" fill="#dadada"/>
      <path id="Trazado_87" data-name="Trazado 87" d="M126.639,193.3l-1.3-1.3-6.007,6.007-2.609-2.61-1.3,1.3,3.914,3.914Z" transform="translate(-109.985 -180.922)" fill="#dadada"/>
    </g>
  </g>
</svg>
