<svg xmlns="http://www.w3.org/2000/svg" width="21.5" height="19.654" viewBox="0 0 21.5 19.654">
  <g id="icon-warning" transform="translate(0 -20.882)">
    <g id="Grupo_398" data-name="Grupo 398" transform="translate(0 20.882)">
      <path id="Trazado_560" data-name="Trazado 560" d="M219.33,333.382a1.1,1.1,0,0,0,0,2.21,1.105,1.105,0,0,0,0-2.21Z" transform="translate(-208.58 -319.571)" fill="#287fa2"/>
      <path id="Trazado_561" data-name="Trazado 561" d="M20.976,38.609a3.773,3.773,0,0,0,.009-3.819L14.064,22.8a3.813,3.813,0,0,0-6.621,0l-6.93,12a3.828,3.828,0,0,0,3.315,5.737H17.653A3.806,3.806,0,0,0,20.976,38.609Zm-1.5-.866A2.089,2.089,0,0,1,17.648,38.8H3.824a2.06,2.06,0,0,1-1.8-1.034,2.091,2.091,0,0,1,0-2.108l6.93-11.995a2.081,2.081,0,0,1,3.615,0l6.926,11.995A2.064,2.064,0,0,1,19.474,37.743Z" transform="translate(0 -20.882)" fill="#287fa2"/>
      <path id="Trazado_562" data-name="Trazado 562" d="M218.578,157.207a1.2,1.2,0,0,0-.853,1.207c.027.349.049.7.075,1.052.075,1.33.15,2.634.225,3.964a.81.81,0,0,0,.826.778.826.826,0,0,0,.826-.8c0-.274,0-.526.027-.8.049-.853.1-1.706.15-2.559.027-.552.075-1.1.1-1.657a1.365,1.365,0,0,0-.1-.552A1.108,1.108,0,0,0,218.578,157.207Z" transform="translate(-208.102 -151.152)" fill="#287fa2"/>
    </g>
  </g>
</svg>
