<svg id="Grupo_291" data-name="Grupo 291" xmlns="http://www.w3.org/2000/svg" width="14.167" height="16.4" viewBox="0 0 14.167 16.4">
  <path id="Trazado_155" data-name="Trazado 155" d="M260.724,4.88l-3.453-3.331A2.728,2.728,0,0,0,255.81.854V6.289h5.634A2.561,2.561,0,0,0,260.724,4.88Z" transform="translate(-247.31 -0.822)" fill="#7eb6cd"/>
  <path id="Trazado_156" data-name="Trazado 156" d="M44.692,6.833a1.044,1.044,0,0,1-.753-.3.971.971,0,0,1-.31-.726V0H37.608a1.044,1.044,0,0,0-.753.3.971.971,0,0,0-.31.726v14.35a.971.971,0,0,0,.31.726,1.045,1.045,0,0,0,.753.3H49.651a1.044,1.044,0,0,0,.752-.3.972.972,0,0,0,.31-.726V6.833Z" transform="translate(-36.546)" fill="#7eb6cd"/>
</svg>
