<svg id="Grupo_11" data-name="Grupo 11" xmlns="http://www.w3.org/2000/svg" width="103.065" height="90.753" viewBox="0 0 103.065 90.753">
  <path id="Trazado_30" data-name="Trazado 30" d="M11.092,51.454A11.1,11.1,0,1,0,0,40.342,11.107,11.107,0,0,0,11.092,51.454Zm0-17.048a5.935,5.935,0,1,1-5.935,5.935A5.942,5.942,0,0,1,11.092,34.406Z" transform="translate(0 -29.25)" fill="#6ab321"/>
  <path id="Trazado_31" data-name="Trazado 31" d="M11.092,214.333A11.092,11.092,0,1,0,0,203.242,11.107,11.107,0,0,0,11.092,214.333Zm0-17.027a5.935,5.935,0,1,1-5.935,5.935A5.942,5.942,0,0,1,11.092,197.306Z" transform="translate(0 -157.865)" fill="#6ab321"/>
  <path id="Trazado_32" data-name="Trazado 32" d="M11.092,377.233A11.092,11.092,0,1,0,0,366.142,11.107,11.107,0,0,0,11.092,377.233Zm0-17.048a5.935,5.935,0,1,1-5.935,5.935A5.942,5.942,0,0,1,11.092,360.185Z" transform="translate(0 -286.48)" fill="#6ab321"/>
  <path id="Trazado_33" data-name="Trazado 33" d="M166.189,74.827h63.456a2.589,2.589,0,0,0,0-5.177H166.189a2.589,2.589,0,1,0,0,5.177Z" transform="translate(-129.168 -61.147)" fill="#6ab321"/>
  <path id="Trazado_34" data-name="Trazado 34" d="M166.189,237.727h63.456a2.589,2.589,0,0,0,0-5.177H166.189a2.589,2.589,0,1,0,0,5.177Z" transform="translate(-129.168 -189.762)" fill="#6ab321"/>
  <path id="Trazado_35" data-name="Trazado 35" d="M166.189,400.528h63.456a2.589,2.589,0,0,0,0-5.177H166.189a2.589,2.589,0,1,0,0,5.177Z" transform="translate(-129.168 -318.298)" fill="#6ab321"/>
</svg>
