<svg id="calculator_1_" data-name="calculator (1)" xmlns="http://www.w3.org/2000/svg" width="102.7" height="102.7" viewBox="0 0 102.7 102.7">
  <path id="Trazado_133" data-name="Trazado 133" d="M31.019,18.624H22.166V9.771a1.771,1.771,0,1,0-3.541,0v8.853H9.771a1.771,1.771,0,1,0,0,3.541h8.853v8.853a1.771,1.771,0,1,0,3.541,0V22.166h8.853a1.771,1.771,0,1,0,0-3.541Z" transform="translate(6.166 6.166)" fill="#6ab321"/>
  <path id="Trazado_134" data-name="Trazado 134" d="M59.019,14H37.771a1.771,1.771,0,1,0,0,3.541H59.019a1.771,1.771,0,1,0,0-3.541Z" transform="translate(27.745 10.79)" fill="#6ab321"/>
  <path id="Trazado_135" data-name="Trazado 135" d="M53.121,0H0V102.7H102.7V0ZM3.541,3.541H49.579V49.579H3.541Zm0,95.617V53.121H49.579V99.159Zm95.617,0H53.121V53.121H99.159ZM53.121,49.579V3.541H99.159V49.579Z" fill="#6ab321"/>
  <path id="Trazado_136" data-name="Trazado 136" d="M37.771,48.541H59.019a1.771,1.771,0,0,0,0-3.541H37.771a1.771,1.771,0,0,0,0,3.541Z" transform="translate(27.745 34.681)" fill="#6ab321"/>
  <path id="Trazado_137" data-name="Trazado 137" d="M37.771,42.541H59.019a1.771,1.771,0,1,0,0-3.541H37.771a1.771,1.771,0,1,0,0,3.541Z" transform="translate(27.745 30.057)" fill="#6ab321"/>
  <path id="Trazado_138" data-name="Trazado 138" d="M29.73,37.519a1.769,1.769,0,0,0-2.5,0l-7.6,7.6-7.6-7.6a1.77,1.77,0,0,0-2.5,2.5l7.6,7.6-7.6,7.6a1.77,1.77,0,1,0,2.5,2.5l7.6-7.6,7.6,7.6a1.77,1.77,0,0,0,2.5-2.5l-7.6-7.6,7.6-7.6A1.769,1.769,0,0,0,29.73,37.519Z" transform="translate(6.936 28.515)" fill="#6ab321"/>
</svg>
