<svg xmlns="http://www.w3.org/2000/svg" width="103.232" height="61.601" viewBox="0 0 103.232 61.601">
  <g id="logo1" transform="translate(0)">
    <g id="New_Layer" data-name="New Layer" transform="translate(0)">
      <path id="Path_1" data-name="Path 1" d="M312.038.077a5.63,5.63,0,0,1-.494.429c-.244.2-.619.5-.834.679s-.441.363-.506.417-.2.161-.31.232a3.512,3.512,0,0,0-.357.3c-.1.089-.286.256-.435.369s-.417.339-.607.494l-.345.286.036,20.374.042,20.374.155.2c.083.113.2.244.244.3s.2.22.327.369c.6.673,1.137,1.274,1.221,1.357.048.054.363.4.691.78s.78.869.994,1.1l.393.417.006-24.28c0-21.166-.009-24.274-.089-24.274a.179.179,0,0,0-.131.077Z" transform="translate(-289.803 0)" fill="#6c6c6c" fill-rule="evenodd"/>
      <path id="Path_2" data-name="Path 2" d="M443.352,107.233c-.048.042-.435.316-.863.6s-.839.578-.923.655a3.3,3.3,0,0,1-.387.274,3.527,3.527,0,0,0-.3.191c-.03.03-.286.208-.566.4s-.554.393-.613.441a.413.413,0,0,1-.137.089.808.808,0,0,0-.173.131l-.143.137.054,9.615c.03,5.287.089,12.991.125,17.111l.071,7.5.244-.274c.137-.149.351-.4.482-.554s.28-.327.327-.381.167-.185.262-.3c.191-.232.792-.923.929-1.072.048-.048.274-.322.5-.6s.452-.548.506-.6.262-.28.47-.512l.369-.429V123.41C443.59,106.358,443.6,107,443.352,107.233Z" transform="translate(-413.098 -100.779)" fill="#6c6c6c" fill-rule="evenodd"/>
      <path id="Path_3" data-name="Path 3" d="M73.927,140.166l-1.822,1.8-.012,4.5-.018,4.5-.333.179a10.688,10.688,0,0,0-1.31.869,1.379,1.379,0,0,1-.22.2c-.107.077-.363.3-.566.488s-.613.566-.9.828a27.386,27.386,0,0,0-2.346,2.382c-.179.238-.994,1.548-1.066,1.7-.012.024.06.119.149.208.2.208.548.6.911,1.042.232.274.583.673.893,1.006.1.1.411.476.726.857.107.131.327.375.482.536s.345.381.417.47.185.226.25.3.292.327.506.572.441.5.506.572c.161.173.333.375.822.947.22.262.56.649.756.863s.476.53.637.709.327.375.375.447a8.869,8.869,0,0,0,.768.863c.143.149.327.369.417.482s.167.22.185.238c.048.048.488.554.774.887.149.173.357.411.458.53a1.358,1.358,0,0,1,.2.262c0,.024.036.048.077.048.071,0,.089-2.6.125-15.516.024-8.532.03-15.528.018-15.54S74.933,139.178,73.927,140.166Z" transform="translate(-61.439 -130.158)" fill="#6c6c6c" fill-rule="evenodd"/>
      <path id="Path_4" data-name="Path 4" d="M55.939,190.143c-.06.083-.155.2-.2.274-.1.143-.923,1.244-1,1.34-.03.036-.1.143-.161.238-.131.208-.619.851-.738.982a2.645,2.645,0,0,0-.238.327c-.089.131-.357.506-.6.834s-.494.673-.56.774a1.845,1.845,0,0,1-.149.208c-.06.042-.726.941-.869,1.161-.06.1-.131.2-.161.238s-.1.125-.167.2a.655.655,0,0,0-.119.179,1.62,1.62,0,0,1-.208.274,6.07,6.07,0,0,0-.429.566c-.125.179-.286.393-.357.476a.687.687,0,0,0-.137.185.655.655,0,0,1-.119.179,2.855,2.855,0,0,0-.339.47,2.954,2.954,0,0,1-.238.327c-.161.173-.851,1.09-.851,1.125a6.9,6.9,0,0,1-.458.637c-.25.327-.506.661-.554.732s-.316.435-.6.816-.548.756-.6.828a2.886,2.886,0,0,1-.238.3,3.159,3.159,0,0,0-.226.274c-.149.226-.661.947-.709,1.006a3.228,3.228,0,0,0-.2.268c-.083.113-.173.238-.208.28-.238.292-.375.47-.709.941-.214.292-.417.572-.452.607a4.1,4.1,0,0,0-.25.357c-.1.155-.381.53-.613.828s-.458.6-.506.679c-.149.226-.97,1.334-1.054,1.417a.3.3,0,0,0-.077.119.6.6,0,0,1-.137.191,3.283,3.283,0,0,0-.28.387c-.077.131-.292.441-.476.691s-.369.518-.417.589a3.873,3.873,0,0,1-.244.31,3,3,0,0,0-.381.494c-.065.1-.3.435-.536.744s-.458.625-.506.7-.292.387-.536.714-.542.732-.661.911a5.93,5.93,0,0,1-.4.536c-.1.113-.316.393-.482.625s-.316.441-.339.476a3.232,3.232,0,0,0-.2.268,2.781,2.781,0,0,1-.208.274c-.065.077-.244.322-.387.53-.048.071-.3.411-.548.75s-.619.828-.8,1.084-.393.524-.452.6a2.484,2.484,0,0,0-.214.28c-.054.083-.113.173-.137.208-.244.316-.816,1.107-.9,1.244a2.8,2.8,0,0,1-.238.31,4.922,4.922,0,0,0-.393.5c-.31.458-1.2,1.655-1.3,1.756a.47.47,0,0,0-.125.167c0,.018-.232.351-.518.738s-.6.816-.7.947c-.458.619-.923,1.25-.965,1.3a3.228,3.228,0,0,0-.2.268,2.781,2.781,0,0,1-.208.274c-.03.036-.1.131-.149.2a2.892,2.892,0,0,1-.22.292c-.077.083-.268.339-.435.572s-.357.494-.429.589a1.671,1.671,0,0,0-.191.28c-.03.065-.077.113-.107.113s-.048.036-.054.071a2.123,2.123,0,0,1-.292.435c-.161.2-.441.572-.631.834-.316.441-1.119,1.53-1.226,1.667-.03.03-.1.119-.155.191s-.143.185-.191.256c-.28.4-.851,1.161-.887,1.179s-.089-.089-.143-.214a1.688,1.688,0,0,0-.226-.375,3.9,3.9,0,0,1-.3-.441c-.1-.161-.2-.339-.232-.387s-.185-.3-.339-.566-.357-.583-.447-.708a1,1,0,0,1-.167-.31.105.105,0,0,0-.054-.1c-.03-.012-.369-.542-.75-1.179s-.756-1.238-.828-1.34-.149-.22-.185-.28c-.357-.625-1.506-2.483-1.59-2.572a.724.724,0,0,1-.143-.238.394.394,0,0,0-.083-.155c-.018-.018-.3-.47-.625-1.012s-.6-.994-.619-1.012a4.733,4.733,0,0,1-.423-.673,1.679,1.679,0,0,0-.244-.4c-.018-.018-.25-.393-.518-.834a10.064,10.064,0,0,0-.7-1.113,1.929,1.929,0,0,1-.2-.327,4.55,4.55,0,0,0-.244-.435c-.06-.1-.131-.22-.155-.268a.317.317,0,0,0-.077-.119,4.489,4.489,0,0,1-.476-.828.06.06,0,0,0-.054-.065c-.03,0-.077-.054-.1-.125a.893.893,0,0,0-.161-.262,1.861,1.861,0,0,1-.322-.524c-.018-.054-.06-.1-.083-.1s-.071-.06-.1-.137a2.327,2.327,0,0,0-.2-.369,2.933,2.933,0,0,1-.339-.583c-.018-.054-.06-.1-.083-.1a1.231,1.231,0,0,1-.208-.327,1.762,1.762,0,0,0-.214-.357,2.823,2.823,0,0,1-.244-.363c-.107-.185-.244-.4-.3-.494s-.155-.262-.226-.393-.208-.351-.3-.494a2.541,2.541,0,0,1-.173-.28,2.019,2.019,0,0,0-.2-.31c-.161-.232-.685-1.078-.959-1.554-.048-.089-.458-.774-.7-1.173a1.26,1.26,0,0,0-.107-.149c-.024-.018-.393-.619-.828-1.34s-.8-1.322-.834-1.34a1.854,1.854,0,0,1-.191-.3c-.458-.81-1.661-2.733-1.715-2.733A6.439,6.439,0,0,0,3,207.26c-.071.119-.244.441-.381.72a6.112,6.112,0,0,1-.3.536,10.153,10.153,0,0,0-.613,1.31c-.089.214-.185.435-.214.488a.424.424,0,0,0-.06.173.906.906,0,0,1-.083.25,11.609,11.609,0,0,0-.482,1.488.578.578,0,0,1-.1.256.22.22,0,0,0-.054.167.309.309,0,0,1-.054.185A20.8,20.8,0,0,0,.063,216.2a36.774,36.774,0,0,0,0,4.287,21.192,21.192,0,0,0,.6,3.423c.03.065.1.268.149.447.179.6.458,1.459.542,1.649a.906.906,0,0,1,.083.25.424.424,0,0,0,.06.173c.03.054.113.232.179.4.191.458.214.506.423.953.107.226.208.429.226.447a4.126,4.126,0,0,1,.232.411c.107.208.351.631.536.941s.393.655.458.762a3.5,3.5,0,0,0,.438.613c.071.089.232.31.357.482s.262.375.31.429.238.28.417.5a29.79,29.79,0,0,0,2.709,2.709,22.63,22.63,0,0,0,2.846,2.018,3.492,3.492,0,0,1,.417.268,22.956,22.956,0,0,0,2.185,1.072c.214.089.435.185.488.214a.46.46,0,0,0,.2.06c.048,0,.089.024.089.048a3.469,3.469,0,0,0,.7.274c.387.125.75.25.816.274a3,3,0,0,0,.387.113c.149.042.47.119.714.179a23.109,23.109,0,0,0,4.317.667,22.038,22.038,0,0,0,3.3-.065c.149-.03.524-.083.834-.113a19.435,19.435,0,0,0,2.709-.506A9.655,9.655,0,0,0,28.8,239.3c.065-.024.387-.131.714-.238a9.982,9.982,0,0,0,.953-.351,5.241,5.241,0,0,1,.839-.363c.06,0,1.887-.911,1.929-.959.018-.024.22-.149.447-.292a18.133,18.133,0,0,0,1.864-1.238c.06-.054.232-.2.393-.31a23.6,23.6,0,0,0,2.882-2.709l.607-.685c.048-.054.149-.173.22-.268.631-.845.792-1.078,1.078-1.518.179-.28.345-.518.363-.536a1.082,1.082,0,0,0,.113-.161c.036-.077.107-.2.149-.268a.775.775,0,0,1,.1-.167c.03-.03.959-1.905,1.1-2.2a.855.855,0,0,1,.1-.179c.06-.06.667-1.774.816-2.292a22.6,22.6,0,0,0,.863-5.168,22.125,22.125,0,0,0-.875-7.246c-.054-.179-.125-.435-.161-.566a1.422,1.422,0,0,0-.113-.3.213.213,0,0,1-.054-.125,21.231,21.231,0,0,1,1.137-1.929c.024-.018.369-.578.774-1.25s.75-1.232.774-1.25.393-.619.828-1.34.81-1.322.834-1.34a4.95,4.95,0,0,0,.447-.726c.244-.429,1.2-1.971,1.34-2.161a5.212,5.212,0,0,0,.3-.476c.071-.131.173-.31.226-.4s.274-.441.482-.792.411-.667.447-.709a1.819,1.819,0,0,0,.256-.387c.024-.048.125-.22.238-.387a1.307,1.307,0,0,0,.2-.375c0-.042.018-.077.048-.077s.071-.054.1-.119c.077-.161,1.054-1.75,1.1-1.786a1.259,1.259,0,0,0,.107-.149c.589-.994,1.179-1.941,1.244-2a.2.2,0,0,0,.083-.131,4.234,4.234,0,0,1,.357-.613c.2-.3.375-.6.4-.661s.25-.423.506-.81a8.043,8.043,0,0,0,.464-.756.258.258,0,0,1,.077-.131c.071-.077.238-.4.2-.4A.774.774,0,0,0,55.939,190.143Z" transform="translate(0 -178.688)" fill="#24637b" fill-rule="evenodd"/>
      <path id="Path_5" data-name="Path 5" d="M556.221,338.764a55.841,55.841,0,0,0-.042,5.906c.048,6.841.089,8.7.185,8.6.036-.042.125-.143.19-.232.107-.137.816-.941,1.006-1.143.036-.036.25-.28.476-.542s.44-.506.476-.536.2-.22.363-.411.357-.423.441-.506c.262-.28.6-.655.911-1.036.173-.2.4-.464.518-.583a8.983,8.983,0,0,0,.75-.833c.054-.089.458-.554,1.155-1.3a1.665,1.665,0,0,0,.357-.494,3.325,3.325,0,0,0-.863-1.316c-.036-.036-.208-.238-.387-.453s-.345-.4-.363-.417a1.915,1.915,0,0,1-.125-.167,29.114,29.114,0,0,0-2.072-2.084c-.244-.214-.607-.554-.8-.756-.3-.3-1.072-1-1.387-1.25-.042-.03-.137-.119-.214-.185C556.584,338.83,556.316,338.7,556.221,338.764Z" transform="translate(-523.049 -318.581)" fill="#6c6c6c" fill-rule="evenodd"/>
      <path id="Path_6" data-name="Path 6" d="M1059.891,545.028a4.392,4.392,0,0,0-3.234,2.242c-.3.574-.327.714-.327,1.917a3.272,3.272,0,0,0,.338,1.982,4.214,4.214,0,0,0,2.262,1.971,3.954,3.954,0,0,0,1.833.2,3.615,3.615,0,0,0,2.651-.921l.315-.3-.408-.422c-.444-.455-.316-.466-1.3.119a3.94,3.94,0,0,1-2.79-.13,3.128,3.128,0,0,1-.526-4.527,3.043,3.043,0,0,1,3.538-.509c.771.368.829.357,1.284-.238.233-.3.233-.325.023-.542a4.369,4.369,0,0,0-2.043-.844c-.408-.054-.794-.1-.864-.1C1060.591,544.931,1060.24,544.974,1059.891,545.028Z" transform="translate(-993.438 -512.476)" fill="#24637b" fill-rule="evenodd"/>
      <path id="Path_7" data-name="Path 7" d="M1324.02,545.72a4.142,4.142,0,0,0-3.608,3.834,4.051,4.051,0,0,0,2.533,4.158,3.869,3.869,0,0,0,1.985.282,3.6,3.6,0,0,0,1.985-.292,4.286,4.286,0,0,0,2.031-1.928,3.275,3.275,0,0,0,.4-1.733,3.82,3.82,0,0,0-.84-2.8A4.833,4.833,0,0,0,1324.02,545.72Zm2.463,1.678a2.661,2.661,0,0,1,.841.953,2.522,2.522,0,0,1,.339,1.537,2.592,2.592,0,0,1-1.25,2.47,2.937,2.937,0,0,1-4-1.018,4.42,4.42,0,0,1,.035-2.977,2.506,2.506,0,0,1,2.639-1.321A2.21,2.21,0,0,1,1326.483,547.4Z" transform="translate(-1241.782 -513.168)" fill="#24637b" fill-rule="evenodd"/>
      <path id="Path_8" data-name="Path 8" d="M1064.49,709.819a4.037,4.037,0,0,0-3.654,4.266,3.891,3.891,0,0,0,2.685,3.855,4.328,4.328,0,0,0,1.833.185,3.613,3.613,0,0,0,2.65-.921l.316-.3-.409-.411c-.467-.455-.327-.466-1.3.108a4.08,4.08,0,0,1-2.662-.033,2.954,2.954,0,1,1,3.129-5c.4.26.549.217.957-.282.315-.39.315-.4.105-.617a4.265,4.265,0,0,0-2.043-.855c-.408-.054-.794-.1-.864-.1S1064.84,709.764,1064.49,709.819Z" transform="translate(-997.675 -667.455)" fill="#24637b" fill-rule="evenodd"/>
      <path id="Path_9" data-name="Path 9" d="M1318.778,709.808a4.36,4.36,0,0,0-3.269,2.23c-.315.6-.339.726-.339,1.939s.024,1.343.327,1.917a4.517,4.517,0,0,0,2.043,1.9,3.6,3.6,0,0,0,2.008.3,3.649,3.649,0,0,0,2.125-.357,4.011,4.011,0,0,0,2.382-3.379,4.137,4.137,0,0,0-3.7-4.548c-.408-.054-.794-.1-.864-.1S1319.1,709.764,1318.778,709.808Zm1.914,1.472a2.55,2.55,0,0,1,1.635,2.382c.14,2.057-1.072,3.313-3.047,3.151a2.454,2.454,0,0,1-2.125-1.321,2.381,2.381,0,0,1-.35-1.506,2.717,2.717,0,0,1,.315-1.484,2.494,2.494,0,0,1,1.459-1.288A4.494,4.494,0,0,1,1320.692,711.28Z" transform="translate(-1236.867 -667.455)" fill="#24637b" fill-rule="evenodd"/>
      <path id="Path_10" data-name="Path 10" d="M811.076,875.841A4.377,4.377,0,0,0,807.7,878.3a5,5,0,0,0-.175,2.924,3.808,3.808,0,0,0,2.23,2.62,6.207,6.207,0,0,0,3.351.173c.666-.173,1.727-.844,1.727-1.072a1.447,1.447,0,0,0-.408-.509l-.4-.357-.444.282a2.723,2.723,0,0,1-1.74.508,2.535,2.535,0,0,1-2.708-2.6,2.7,2.7,0,0,1,1.226-2.751,3.517,3.517,0,0,1,2.989-.076,2.235,2.235,0,0,0,.829.271,1.667,1.667,0,0,0,.467-.476l.292-.411-.421-.3A4.994,4.994,0,0,0,811.076,875.841Z" transform="translate(-759.315 -823.641)" fill="#24637b" fill-rule="evenodd"/>
      <path id="Path_11" data-name="Path 11" d="M814.508,546.544c-.035.065-.047,1.939-.035,4.137l.035,4.007.724.033.735.032.024-2.945.035-2.957,1.273,2.223c.7,1.213,1.354,2.3,1.447,2.393a1.136,1.136,0,0,0,1.167.054c.06-.065.677-1.105,1.369-2.3.677-1.191,1.272-2.2,1.319-2.242a22.767,22.767,0,0,1,.082,2.816v2.888l.735.033.724.032V546.4h-.727a3.147,3.147,0,0,0-.876.086c-.14.076-1.727,2.761-2.744,4.624-.292.52-.5.8-.536.7-.094-.282-2.858-5.024-3.036-5.23C816,546.36,814.59,546.317,814.508,546.544Z" transform="translate(-765.977 -513.862)" fill="#24637b" fill-rule="evenodd"/>
      <path id="Path_12" data-name="Path 12" d="M1006.32,550.729V554.9h1.635V546.56h-1.635Z" transform="translate(-946.405 -514.019)" fill="#24637b" fill-rule="evenodd"/>
      <path id="Path_13" data-name="Path 13" d="M1198.5,550.333v4.18h1.637v-3.251h.5a1.757,1.757,0,0,1,.619.087,14.778,14.778,0,0,1,1.156,1.516,6.042,6.042,0,0,0,1.3,1.548,4.426,4.426,0,0,0,1.681.033c0-.1-2.09-2.977-2.37-3.26-.128-.141-.221-.26-.186-.271s.257-.13.5-.249a2.287,2.287,0,0,0,.655-3.628c-.689-.639-1.272-.78-3.526-.834l-1.961-.054Zm3.853-2.7a1.01,1.01,0,0,1,.607,1.083c0,.964-.548,1.354-1.915,1.354h-.907v-1.278a5.275,5.275,0,0,1,.093-1.364A5.059,5.059,0,0,1,1202.353,547.636Z" transform="translate(-1127.143 -513.633)" fill="#24637b" fill-rule="evenodd"/>
      <path id="Path_14" data-name="Path 14" d="M814.514,711.714c-.034.076-.046,1.949-.034,4.147l.034,4.007h1.635l.034-1.657.035-1.646h3.257v-1.3h-3.269v-2.382l1.961-.021,1.95-.033v-1.191l-2.779-.032C815.179,711.584,814.549,711.605,814.514,711.714Z" transform="translate(-765.982 -669.231)" fill="#24637b" fill-rule="evenodd"/>
      <path id="Path_15" data-name="Path 15" d="M916.89,711.534c-.046.108-.829,1.949-1.739,4.093s-1.634,3.93-1.6,3.974a2.557,2.557,0,0,0,1.518-.076,2.841,2.841,0,0,0,.572-1.029l.316-.866h3.691l.245.617c.56,1.44.56,1.44,1.588,1.44.572,0,.655-.021.607-.2-.082-.26-3.246-7.721-3.386-7.959-.082-.152-.257-.184-.922-.184S916.948,711.382,916.89,711.534Zm1.67,3.325c.35.888.63,1.624.63,1.646a11.089,11.089,0,0,1-1.343.043c-1.039,0-1.343-.032-1.343-.141a16.517,16.517,0,0,1,.6-1.657c.327-.823.619-1.581.655-1.667.06-.141.07-.141.119,0C917.907,713.169,918.221,713.97,918.56,714.859Z" transform="translate(-859.159 -668.997)" fill="#24637b" fill-rule="evenodd"/>
      <path id="Path_16" data-name="Path 16" d="M1190.65,712v.65h2.686v7.039h1.634v-7.039h2.685v-1.3h-7.005Z" transform="translate(-1119.761 -668.997)" fill="#24637b" fill-rule="evenodd"/>
      <path id="Path_17" data-name="Path 17" d="M1482.872,715.146l.035,4.159h1.634l.035-1.6.034-1.592h1.051l1.1,1.56c1.191,1.689,1.179,1.689,2.322,1.689.549,0,.666-.033.619-.162-.119-.26-1.961-2.794-2.263-3.1l-.292-.292.5-.249a2.259,2.259,0,0,0,.35-3.964c-.642-.4-1.144-.487-3.2-.541l-1.95-.054Zm3.257-2.826c.77.141,1.156.455,1.237,1.05a1.286,1.286,0,0,1-.7,1.332,2.254,2.254,0,0,1-1.214.216h-.852v-2.707h.455A8.718,8.718,0,0,1,1486.13,712.32Z" transform="translate(-1394.563 -668.668)" fill="#24637b" fill-rule="evenodd"/>
      <path id="Path_18" data-name="Path 18" d="M1599.082,711.377c.047.1.747,1.213,1.565,2.469l1.482,2.285.06,1.678.06,1.679h1.634l.035-1.646.035-1.646,1.565-2.458c.864-1.343,1.576-2.47,1.576-2.491a4.816,4.816,0,0,0-1.775.087,16.78,16.78,0,0,0-1.226,1.938l-1.028,1.786-.922-1.571c-.514-.866-1.051-1.743-1.2-1.938-.269-.336-.315-.347-1.109-.347C1599.117,711.2,1599.023,711.226,1599.082,711.377Z" transform="translate(-1503.861 -668.852)" fill="#24637b" fill-rule="evenodd"/>
      <path id="Path_19" data-name="Path 19" d="M938.464,880.553c-.91,2.165-1.693,4.039-1.727,4.168-.06.2-.012.217.525.217.992,0,1.109-.086,1.506-1.1l.347-.9,1.856-.032,1.856-.022.327.866a2.737,2.737,0,0,0,.584,1.029,2.809,2.809,0,0,0,1.506.1,7.755,7.755,0,0,0-.548-1.484c-.339-.791-1.121-2.632-1.752-4.115l-1.131-2.674h-1.68Zm3.2-.617c.351.91.642,1.7.642,1.754a3.939,3.939,0,0,1-1.354.108c-1.039,0-1.343-.032-1.31-.141.7-1.819,1.331-3.411,1.343-3.389s.318.766.679,1.665Z" transform="translate(-880.947 -824.409)" fill="#24637b" fill-rule="evenodd"/>
      <path id="Path_20" data-name="Path 20" d="M1093.292,880.37v4.18h1.634v-2.891l1.2-.054c2.322-.119,3.453-.975,3.467-2.632a2.166,2.166,0,0,0-.714-1.9c-.736-.65-1.261-.78-3.572-.845l-2.019-.044Zm3.981-2.7a1.472,1.472,0,0,1,.514,1.939c-.28.542-.725.714-1.833.747l-.969.021-.035-1.343a10.888,10.888,0,0,1,.035-1.505C1095.066,877.316,1096.747,877.425,1097.273,877.674Z" transform="translate(-1028.197 -824.023)" fill="#24637b" fill-rule="evenodd"/>
      <path id="Path_21" data-name="Path 21" d="M1220.78,880.729V884.9h1.634V876.56h-1.634Z" transform="translate(-1148.097 -824.371)" fill="#24637b" fill-rule="evenodd"/>
      <path id="Path_22" data-name="Path 22" d="M1264.145,876.958a1.861,1.861,0,0,0-.024.617l.035.476,1.31.033,1.319.032.023,3.487.035,3.487h1.635l.03-3.495.024-3.487h2.7l-.035-.628-.035-.617-3.479-.032C1264.786,876.806,1264.2,876.828,1264.145,876.958Z" transform="translate(-1188.846 -824.617)" fill="#24637b" fill-rule="evenodd"/>
      <path id="Path_23" data-name="Path 23" d="M1386.242,876.792c-.059.152-.829,1.971-1.7,4.029s-1.588,3.8-1.6,3.866c-.035.2,1.179.206,1.494.021a2.363,2.363,0,0,0,.6-1.04l.339-.866,1.856.022,1.846.032.35.9c.281.7.42.92.642,1.007.361.13,1.436.13,1.436,0s-3.211-7.721-3.4-8.038c-.094-.173-.246-.205-.934-.205C1386.406,876.522,1386.347,876.544,1386.242,876.792Zm2.263,4.679c.082.249.082.249-1.261.249-.911,0-1.354-.043-1.354-.119a18.991,18.991,0,0,1,.666-1.786l.655-1.667.607,1.538c.341.852.644,1.656.691,1.786Z" transform="translate(-1300.599 -824.333)" fill="#24637b" fill-rule="evenodd"/>
      <path id="Path_24" data-name="Path 24" d="M1538.45,880.729V884.9l2.6-.021,2.592-.033.035-.617.035-.617-1.786-.033-1.786-.032-.035-3.5-.023-3.487h-1.635Z" transform="translate(-1446.853 -824.371)" fill="#24637b" fill-rule="evenodd"/>
    </g>
  </g>
</svg>
