<svg xmlns="http://www.w3.org/2000/svg" width="23" height="21.025" viewBox="0 0 23 21.025">
  <g id="warning" transform="translate(0 -20.882)">
    <g id="Grupo_77" data-name="Grupo 77" transform="translate(0 20.882)">
      <path id="Trazado_91" data-name="Trazado 91" d="M219.407,333.382a1.182,1.182,0,1,0,0,2.364,1.182,1.182,0,0,0,0-2.364Z" transform="translate(-207.907 -318.607)" fill="#fff"/>
      <path id="Trazado_92" data-name="Trazado 92" d="M22.44,39.846a4.036,4.036,0,0,0,.009-4.085l-7.4-12.822a4.079,4.079,0,0,0-7.083,0L.549,35.77A4.095,4.095,0,0,0,4.1,41.907H18.884A4.072,4.072,0,0,0,22.44,39.846Zm-1.608-.927a2.234,2.234,0,0,1-1.953,1.13H4.09a2.2,2.2,0,0,1-1.929-1.106,2.237,2.237,0,0,1,0-2.255L9.57,23.856a2.227,2.227,0,0,1,3.868,0l7.409,12.832A2.208,2.208,0,0,1,20.832,38.919Z" transform="translate(0 -20.882)" fill="#fff"/>
      <path id="Trazado_93" data-name="Trazado 93" d="M218.637,157.21a1.285,1.285,0,0,0-.913,1.291c.028.374.052.752.08,1.125.08,1.423.161,2.818.241,4.241a.866.866,0,0,0,.884.832.884.884,0,0,0,.884-.861c0-.293,0-.563.028-.86.052-.913.109-1.825.161-2.738.028-.591.08-1.182.109-1.773a1.46,1.46,0,0,0-.109-.591A1.185,1.185,0,0,0,218.637,157.21Z" transform="translate(-207.431 -150.732)" fill="#fff"/>
    </g>
  </g>
</svg>
